<svg id="Ebene_1" data-name="Ebene 1" xmlns="http://www.w3.org/2000/svg" xmlns:xlink="http://www.w3.org/1999/xlink" viewBox="0 0 490.42 771.91"><defs><style>.cls-1{fill:none;}.cls-2{clip-path:url(#clip-path);}.cls-3{fill:#facd3d;}</style><clipPath id="clip-path"><rect class="cls-1" y="0.68" width="491.74" height="770.55" transform="translate(491.74 771.91) rotate(180)"/></clipPath></defs><title>waben_180</title><g class="cls-2"><g id="Gruppe_1" data-name="Gruppe 1"><path id="Pfad_2114" data-name="Pfad 2114" class="cls-3" d="M572.55,363.53l-15.87-90L470.85,242.3l-70,58.71,15.87,90,85.9,31.22Z"/><path id="Pfad_2115" data-name="Pfad 2115" class="cls-3" d="M515.91,538,500,448,414.21,416.8l-70,58.71,15.87,90,85.9,31.21Z"/><path id="Pfad_2112" data-name="Pfad 2112" class="cls-3" d="M516.71,46.85l-15.87-90L415-74.38,345-15.67l15.87,90,85.9,31.22Z"/><path id="Pfad_2113" data-name="Pfad 2113" class="cls-3" d="M456.41,219.23l-15.87-90L354.71,98l-70,58.71,15.87,90,85.9,31.21Z"/><path id="Pfad_2116" data-name="Pfad 2116" class="cls-3" d="M331.46,81.05l-15.87-90L229.76-40.18l-70,58.71,15.87,90,85.9,31.21Z"/><path id="Pfad_2117" data-name="Pfad 2117" class="cls-3" d="M626.76,683l-15.87-90-85.83-31.22-70,58.71,15.87,90,85.9,31.22Z"/><path id="Pfad_2118" data-name="Pfad 2118" class="cls-3" d="M331.46,81.05l-15.87-90L229.76-40.18l-70,58.71,15.87,90,85.9,31.21Z"/></g></g></svg>