<svg id="Ebene_1" data-name="Ebene 1" xmlns="http://www.w3.org/2000/svg" xmlns:xlink="http://www.w3.org/1999/xlink" viewBox="0 0 491.74 770.55"><defs><style>.cls-1{fill:none;}.cls-2{clip-path:url(#clip-path);}.cls-3{fill:#facd3d;}</style><clipPath id="clip-path"><rect class="cls-1" width="491.74" height="770.55"/></clipPath></defs><title>Waben</title><g class="cls-2"><g id="Gruppe_1" data-name="Gruppe 1"><path id="Pfad_2114" data-name="Pfad 2114" class="cls-3" d="M-80.81,407.71l15.87,90,85.83,31.23,70-58.72-15.87-90L-10.84,349Z"/><path id="Pfad_2115" data-name="Pfad 2115" class="cls-3" d="M-24.16,233.2l15.87,90,85.83,31.23,70-58.71-15.87-90L45.81,174.5Z"/><path id="Pfad_2112" data-name="Pfad 2112" class="cls-3" d="M-25,724.39l15.87,90,85.83,31.23,70-58.72-15.87-90L45,665.69Z"/><path id="Pfad_2113" data-name="Pfad 2113" class="cls-3" d="M35.33,552,51.2,642,137,673.23l70.05-58.71-15.87-90-85.9-31.22Z"/><path id="Pfad_2116" data-name="Pfad 2116" class="cls-3" d="M160.29,690.18l15.87,90L262,811.41l70-58.71-15.87-90-85.9-31.22Z"/><path id="Pfad_2117" data-name="Pfad 2117" class="cls-3" d="M-135,88.25l15.87,90,85.83,31.23,70-58.72-15.87-90L-65,29.55Z"/><path id="Pfad_2118" data-name="Pfad 2118" class="cls-3" d="M160.29,690.18l15.87,90L262,811.41l70-58.71-15.87-90-85.9-31.22Z"/></g></g></svg>