<?xml version="1.0" encoding="utf-8"?>
<!-- Generator: Adobe Illustrator 24.0.0, SVG Export Plug-In . SVG Version: 6.00 Build 0)  -->
<svg version="1.1" id="Ebene_1" xmlns="http://www.w3.org/2000/svg" xmlns:xlink="http://www.w3.org/1999/xlink" x="0px" y="0px"
	 viewBox="0 0 16.9 17.1" style="enable-background:new 0 0 16.9 17.1;" xml:space="preserve">
<path d="M6.3,2.3c0,0,0.5,3.8,1.5,4.8s4.8,1.5,4.8,1.5s-3.8,0.5-4.8,1.5s-1.5,4.8-1.5,4.8s-0.5-3.7-1.5-4.7S0,8.6,0,8.6
	s3.8-0.5,4.8-1.5S6.3,2.3,6.3,2.3z"/>
<path d="M13.8,0c0,0,0.3,1.9,0.8,2.4s2.4,0.8,2.4,0.8S15,3.4,14.5,3.9s-0.8,2.4-0.8,2.4S13.5,4.5,13,4s-2.4-0.8-2.4-0.8
	s1.9-0.3,2.4-0.8S13.8,0,13.8,0z"/>
<path d="M13.8,10.8c0,0,0.3,1.9,0.8,2.4c0.5,0.5,2.4,0.8,2.4,0.8s-1.9,0.3-2.4,0.8s-0.8,2.4-0.8,2.4s-0.3-1.9-0.8-2.4
	s-2.4-0.8-2.4-0.8s1.9-0.3,2.4-0.8C13.5,12.7,13.8,10.8,13.8,10.8z"/>
</svg>
